<mxfile host="app.diagrams.net" modified="2023-10-05T17:32:38.413Z" agent="Mozilla/5.0 (Macintosh; Intel Mac OS X 10_15_7) AppleWebKit/605.1.15 (KHTML, like Gecko) Version/15.0 Safari/605.1.15" etag="LUcEY87gHV3MCi0QXCtS" version="22.0.2" type="github">
  <diagram name="Page-1" id="DCZ1rM_a9LMv5U1V_pm2">
    <mxGraphModel dx="1177" dy="671" grid="1" gridSize="10" guides="1" tooltips="1" connect="1" arrows="1" fold="1" page="1" pageScale="1" pageWidth="827" pageHeight="1169" math="0" shadow="0">
      <root>
        <mxCell id="0" />
        <mxCell id="1" parent="0" />
        <mxCell id="onRBkQV_aKbNNI7zjv46-5" value="Swell Dev 2" style="rounded=0;whiteSpace=wrap;html=1;" vertex="1" parent="1">
          <mxGeometry x="40" y="40" width="440" height="470" as="geometry" />
        </mxCell>
        <mxCell id="onRBkQV_aKbNNI7zjv46-1" value="cdn-staging.swell.store" style="image;aspect=fixed;html=1;points=[];align=center;fontSize=12;image=img/lib/azure2/networking/DNS_Zones.svg;" vertex="1" parent="1">
          <mxGeometry x="60" y="60" width="64" height="64" as="geometry" />
        </mxCell>
        <mxCell id="onRBkQV_aKbNNI7zjv46-2" value="staging.swell.store" style="image;aspect=fixed;html=1;points=[];align=center;fontSize=12;image=img/lib/azure2/networking/DNS_Zones.svg;" vertex="1" parent="1">
          <mxGeometry x="60" y="170" width="64" height="64" as="geometry" />
        </mxCell>
        <mxCell id="onRBkQV_aKbNNI7zjv46-3" value="api-staging.swell.store" style="image;aspect=fixed;html=1;points=[];align=center;fontSize=12;image=img/lib/azure2/networking/DNS_Zones.svg;" vertex="1" parent="1">
          <mxGeometry x="60" y="280" width="64" height="64" as="geometry" />
        </mxCell>
        <mxCell id="onRBkQV_aKbNNI7zjv46-4" value="storefront-staging.swell.store" style="image;aspect=fixed;html=1;points=[];align=center;fontSize=12;image=img/lib/azure2/networking/DNS_Zones.svg;" vertex="1" parent="1">
          <mxGeometry x="60" y="390" width="64" height="64" as="geometry" />
        </mxCell>
        <mxCell id="onRBkQV_aKbNNI7zjv46-7" value="aws-uswest1-swell-staging" style="rounded=0;whiteSpace=wrap;html=1;" vertex="1" parent="1">
          <mxGeometry x="560" y="40" width="430" height="460" as="geometry" />
        </mxCell>
        <mxCell id="onRBkQV_aKbNNI7zjv46-8" value="staging.swell.store" style="image;aspect=fixed;html=1;points=[];align=center;fontSize=12;image=img/lib/azure2/networking/DNS_Zones.svg;" vertex="1" parent="1">
          <mxGeometry x="600" y="70" width="64" height="64" as="geometry" />
        </mxCell>
        <mxCell id="onRBkQV_aKbNNI7zjv46-9" value="staging-api.swell.store" style="image;aspect=fixed;html=1;points=[];align=center;fontSize=12;image=img/lib/azure2/networking/DNS_Zones.svg;" vertex="1" parent="1">
          <mxGeometry x="600" y="200" width="64" height="64" as="geometry" />
        </mxCell>
      </root>
    </mxGraphModel>
  </diagram>
</mxfile>
